<svg width="272" height="57" viewBox="0 0 272 57" fill="none" xmlns="http://www.w3.org/2000/svg">
<path d="M49.2023 0.288391L0 54.2075H12.578L16.4624 49.9531C20.9942 45.4213 31.7225 39.1323 48.1849 35.3404H29.7803L48.4624 16.6583L48.1849 35.3404V54.2075H54.289V0.288391H49.2023Z" fill="white"/>
<path d="M71.1214 32.4624C69.6416 30.7977 66.3121 28.763 60.763 32.9249L66.3121 25.711L60.763 17.9422V32.9249V47.9075L56.1387 53.9191V0L77.3179 27.0983L74.1734 31.1676L72.1387 33.7572L71.1214 32.4624Z" fill="#F5A223"/>
<path d="M90.2659 16.469C92.3931 17.7638 94.7977 19.4286 97.2948 21.3708L95.8151 23.4054C94.8902 22.6655 93.9654 21.9257 93.2255 21.2783V22.8505H86.659V21.8332C85.4567 22.8505 84.0694 23.8679 82.5896 24.8852L81.1099 22.7581C84.1619 20.8159 86.7515 18.6887 88.7862 16.469H90.2659ZM95.8151 41.5326H93.318V40.6078H88.1388V41.6251H85.8266V34.0413C85.2717 36.9083 84.3469 39.4054 83.0521 41.6251L81.0174 39.7754C82.7746 37.0933 83.6995 33.5788 83.6995 29.3245V24.2378H95.4451V32.3765H86.0116C85.9191 32.9315 85.9191 33.4864 85.8266 33.9488H95.7226V41.5326H95.8151ZM86.1966 29.3245C86.1966 29.6944 86.1966 30.0644 86.1966 30.4343H93.0405V29.0471H86.2891V29.3245H86.1966ZM93.0405 26.0875H86.2891V27.3823H93.0405V26.0875ZM92.6706 20.9083C91.4683 19.9835 90.4509 19.2436 89.6185 18.7812C88.9712 19.521 88.3237 20.1685 87.4914 20.9083H92.6706ZM93.318 38.5731V35.891H88.1388V38.5731H93.318ZM98.6821 41.3476L98.0347 38.8505C99.3295 38.943 100.624 38.943 101.827 38.943C102.474 38.943 102.844 38.5731 102.844 37.9257V16.3765H105.434V38.5731C105.434 40.4228 104.509 41.2552 102.751 41.2552H98.6821V41.3476ZM100.624 18.3187V35.891H98.1272V18.3187H100.624Z" fill="white"/>
<path d="M120.046 16.37V20.3469H122.359V16.37H124.856V20.3469H126.798C127.538 19.2371 128.185 18.0348 128.74 16.74L131.145 17.6648C130.59 18.6822 130.035 19.607 129.387 20.3469H133.272V22.659H125.688L127.815 23.3989C127.445 24.0463 127.075 24.6012 126.613 25.1561H132.07V27.4683H122.636V28.948H130.775V31.0752H122.636V32.555H133.364V34.8671H122.636V41.711H120.046V34.8671H109.318V32.555H120.046V31.0752H111.815V28.948H119.954V27.4683H110.52V25.1561H115.977C115.607 24.5087 115.237 23.8613 114.775 23.3064L116.532 22.659H109.226V20.3469H113.11C112.648 19.422 112.093 18.4972 111.538 17.6648L113.942 16.74C114.59 17.7573 115.052 18.9596 115.607 20.3469H117.457V16.37H120.046ZM117.364 36.9018C115.7 38.5665 113.572 40.0463 111.168 41.3411L109.596 39.2139C112 38.1041 114.035 36.8093 115.7 35.3295L117.364 36.9018ZM117.364 22.5665C117.827 23.3064 118.289 24.1388 118.659 25.0637H123.653C124.208 24.2313 124.763 23.3989 125.133 22.5665H117.364ZM132.902 39.3989L131.052 41.2486C129.665 39.8613 127.815 38.474 125.318 36.9018L126.983 35.3295C129.387 36.7168 131.33 38.1041 132.902 39.3989Z" fill="white"/>
<path d="M146.219 18.96V16.2779H148.809V18.96H154.913V21.3646H148.809V24.0467H152.046C154.636 22.197 156.855 20.1623 158.612 18.0351L160.555 19.5149C159.167 21.1796 157.688 22.7519 156.115 24.1392H161.017V26.6363H152.786C152.416 26.8212 152.138 27.0062 151.768 27.2837C150.751 27.9311 149.641 28.486 148.254 29.1334H157.595V41.8039H155.005V40.7866H144V41.8039H141.41V32.0929C140.023 32.5553 138.636 33.1102 137.156 33.6652L136.046 31.2605C140.3 30.2432 144.37 28.7634 148.069 26.6363H136.416V24.1392H146.127V21.4571H138.636V19.0525H146.219V18.96ZM155.098 31.2605H144.092V33.5727H155.098V31.2605ZM144 38.3819H155.005V35.8848H144V38.3819Z" fill="white"/>
<path d="M175.26 35.0524C172.948 37.642 170.173 39.8617 166.844 41.7114L164.994 39.3993C168.231 37.642 171.006 35.6074 173.225 33.2952L175.26 35.0524ZM171.283 21.7345V16.2779H173.873V21.7345H180.994V16.3704H183.584V21.7345H188.393V24.2316H183.584V30.1507H189.688V32.7403H165.087V30.1507H171.191V24.2316H166.381V21.7345H171.283ZM180.994 30.2432V24.3241H173.873V30.2432H180.994ZM189.873 39.5842L187.746 41.7114C185.896 39.6767 183.306 37.5495 179.884 35.1449L181.734 33.2952C184.971 35.4224 187.653 37.5495 189.873 39.5842Z" fill="white"/>
<path d="M201.341 16.4619C203.468 17.7567 205.873 19.4214 208.37 21.3636L206.89 23.3983C205.965 22.6584 205.04 21.9185 204.3 21.2711V22.8434H197.734V21.826C196.532 22.8434 195.144 23.8607 193.664 24.878L192.185 22.7509C195.237 20.8087 197.826 18.6815 199.861 16.4619H201.341ZM206.797 41.6179H204.393V40.6931H199.214V41.7104H196.901V34.1266C196.347 36.9937 195.422 39.4908 194.127 41.7104L192.092 39.8607C193.849 37.1786 194.774 33.6642 194.774 29.4098V24.3231H206.52V32.4619H197.086C196.994 33.0168 196.994 33.5717 196.901 34.0341H206.797V41.6179ZM197.271 29.3173C197.271 29.6873 197.271 30.0572 197.271 30.4272H204.115V29.0399H197.364V29.3173H197.271ZM204.023 26.0803H197.271V27.3752H204.023V26.0803ZM203.745 20.9936C202.543 20.0688 201.526 19.3289 200.693 18.8665C200.046 19.6064 199.399 20.2538 198.566 20.9936H203.745ZM204.393 38.5659V35.8838H199.214V38.5659H204.393ZM209.757 41.433L209.11 38.9359C210.404 39.0283 211.699 39.0283 212.901 39.0283C213.549 39.0283 213.919 38.6584 213.919 38.011V16.4619H216.508V38.6584C216.508 40.5081 215.584 41.3405 213.826 41.3405H209.757V41.433ZM211.699 18.3116V35.8838H209.202V18.3116H211.699Z" fill="white"/>
<path d="M243.514 17.3865V19.9761H233.526V29.6871H244.531V32.1841H233.526V41.7102H230.936V32.1841H220.115V29.6871H230.936V19.9761H221.225V17.3865H243.514ZM227.884 27.3749L225.479 28.5772C224.555 26.2651 223.63 24.2304 222.612 22.3807L225.017 21.1784C226.034 23.1206 226.959 25.1553 227.884 27.3749ZM242.219 22.2882C241.387 24.4154 240.37 26.4501 239.167 28.4847L236.855 27.2824C238.15 25.1553 239.167 23.2131 239.907 21.1784L242.219 22.2882Z" fill="white"/>
<path d="M248.046 25.064C250.173 24.6015 253.04 21.642 256.647 16.2778L259.33 17.2027C257.11 20.2547 254.89 22.8443 252.578 24.9715C257.202 24.7865 261.734 24.509 266.081 24.1391C265.249 22.8443 264.324 21.642 263.399 20.4397L265.711 19.3298C267.931 22.1044 270.058 25.0639 272 28.3934L269.41 29.6882C268.763 28.5784 268.116 27.4686 267.468 26.4512C261.734 26.9137 255.353 27.2836 248.324 27.561L248.046 25.064ZM269.133 41.7113H266.543V40.6015H253.041V41.7113H250.451V30.0582H269.225V41.7113H269.133ZM266.451 38.1044V32.5553H252.948V38.1044H266.451Z" fill="white"/>
<path d="M88.3236 46.5349V47.5523H83.8843V49.7719H88.0461V50.7893H83.8843V53.2864H88.5086V54.3037H82.7745V46.5349H88.3236Z" fill="white"/>
<path d="M94.5204 50.8669V54.3814H93.4106V50.9594C93.4106 50.0346 92.9481 49.4797 92.1158 49.4797C91.7458 49.4797 91.4684 49.5721 91.2834 49.8496C91.0059 50.1271 90.821 50.497 90.821 50.9594V54.3814H89.6187V48.7398H90.7285V49.4797C90.9134 49.2022 91.1909 49.0172 91.4684 48.8322C91.7458 48.6473 92.0233 48.6473 92.3932 48.6473C93.7805 48.5548 94.5204 49.2947 94.5204 50.8669Z" fill="white"/>
<path d="M97.4798 48.6479H98.7746V49.5728H97.4798V52.8098C97.4798 52.9948 97.4798 53.0872 97.5723 53.1797C97.6647 53.2722 97.7572 53.2722 97.8497 53.2722H98.5896V54.1971H97.6647C97.2023 54.1971 96.8324 54.1046 96.6474 53.8271C96.4624 53.5496 96.3699 53.2722 96.3699 52.8098V49.5728H95.3526V48.6479H96.3699V47.3531L97.4798 46.8907V48.6479Z" fill="white"/>
<path d="M103.029 48.648V49.7578C102.751 49.6654 102.474 49.6654 102.196 49.6654C101.826 49.6654 101.549 49.8503 101.272 50.1278C100.994 50.4052 100.809 50.8677 100.809 51.3301V54.2896H99.6993V48.648H100.809V49.4804C100.994 49.2029 101.179 48.9255 101.364 48.833C101.641 48.648 101.919 48.5555 102.289 48.5555C102.566 48.5555 102.844 48.5555 103.029 48.648Z" fill="white"/>
<path d="M108.3 49.4804C108.763 50.0353 108.948 50.8677 108.948 51.7925H104.694C104.694 52.3474 104.879 52.7174 105.156 53.0873C105.433 53.3648 105.803 53.5498 106.266 53.5498C106.636 53.5498 107.006 53.4573 107.283 53.2723C107.468 53.0873 107.653 52.9023 107.838 52.5324H108.948C108.855 53.0873 108.578 53.4573 108.208 53.8272C107.746 54.2896 107.098 54.4746 106.358 54.4746C105.526 54.4746 104.879 54.1972 104.416 53.7347C103.861 53.1798 103.676 52.4399 103.676 51.5151C103.676 50.6827 103.954 49.9428 104.416 49.3879C104.879 48.833 105.526 48.5555 106.358 48.5555C107.098 48.5555 107.838 48.833 108.3 49.4804ZM105.248 49.8503C104.971 50.1278 104.879 50.4977 104.786 50.9602H107.838C107.746 49.9428 107.191 49.4804 106.266 49.4804C105.803 49.4804 105.433 49.5729 105.248 49.8503Z" fill="white"/>
<path d="M114.867 49.3865C115.329 49.9414 115.514 50.5888 115.514 51.5137C115.514 52.3461 115.329 52.9935 114.867 53.5484C114.404 54.1033 113.757 54.4732 112.925 54.4732C112.185 54.4732 111.63 54.1033 111.167 53.4559V56.4154H110.058V48.6467H111.167V49.294C111.537 48.7391 112.185 48.4617 112.925 48.4617C113.757 48.5542 114.312 48.8316 114.867 49.3865ZM111.537 50.0339C111.26 50.4039 111.167 50.8663 111.167 51.4212V51.5137C111.167 52.0686 111.352 52.6235 111.63 52.9935C111.907 53.3634 112.277 53.5484 112.647 53.5484C113.202 53.5484 113.665 53.3634 113.942 52.9935C114.219 52.6235 114.312 52.1611 114.312 51.5137C114.312 50.8663 114.219 50.4039 113.942 50.0339C113.665 49.664 113.295 49.3865 112.647 49.3865C112.185 49.479 111.815 49.664 111.537 50.0339Z" fill="white"/>
<path d="M119.954 48.648V49.7578C119.676 49.6654 119.399 49.6654 119.121 49.6654C118.751 49.6654 118.474 49.8503 118.196 50.1278C117.919 50.4052 117.734 50.8677 117.734 51.3301V54.2896H116.624V48.648H117.734V49.4804C117.919 49.2029 118.104 48.9255 118.289 48.833C118.566 48.648 118.844 48.5555 119.214 48.5555C119.584 48.5555 119.769 48.5555 119.954 48.648Z" fill="white"/>
<path d="M125.225 49.4804C125.688 50.0353 125.873 50.8677 125.873 51.7925H121.618C121.618 52.3474 121.803 52.7174 122.081 53.0873C122.358 53.3648 122.728 53.5498 123.191 53.5498C123.561 53.5498 123.93 53.4573 124.208 53.2723C124.393 53.0873 124.578 52.9023 124.763 52.5324H125.873C125.78 53.0873 125.503 53.4573 125.133 53.8272C124.67 54.2896 124.023 54.4746 123.283 54.4746C122.451 54.4746 121.803 54.1972 121.341 53.7347C120.786 53.1798 120.601 52.4399 120.601 51.5151C120.601 50.6827 120.878 49.9428 121.341 49.3879C121.803 48.833 122.451 48.5555 123.283 48.5555C124.115 48.5555 124.763 48.833 125.225 49.4804ZM122.173 49.8503C121.896 50.1278 121.803 50.4977 121.711 50.9602H124.763C124.67 49.9428 124.115 49.4804 123.191 49.4804C122.728 49.4804 122.451 49.5729 122.173 49.8503Z" fill="white"/>
<path d="M131.977 50.8669V54.3814H130.867V50.9594C130.867 50.0346 130.405 49.4797 129.572 49.4797C129.202 49.4797 128.925 49.5721 128.74 49.8496C128.462 50.1271 128.277 50.497 128.277 50.9594V54.3814H127.168V48.7398H128.277V49.4797C128.462 49.2022 128.74 49.0172 129.017 48.8322C129.295 48.6473 129.572 48.6473 129.942 48.6473C131.237 48.5548 131.977 49.2947 131.977 50.8669Z" fill="white"/>
<path d="M137.804 49.4804C138.266 50.0353 138.451 50.8677 138.451 51.7925H134.197C134.197 52.3474 134.382 52.7174 134.659 53.0873C134.936 53.3648 135.306 53.5498 135.769 53.5498C136.139 53.5498 136.509 53.4573 136.786 53.2723C136.971 53.0873 137.156 52.9023 137.341 52.5324H138.451C138.358 53.0873 138.081 53.4573 137.711 53.8272C137.249 54.2896 136.601 54.4746 135.861 54.4746C135.029 54.4746 134.382 54.1972 133.919 53.7347C133.364 53.1798 133.179 52.4399 133.179 51.5151C133.179 50.6827 133.457 49.9428 133.919 49.3879C134.382 48.833 135.029 48.5555 135.861 48.5555C136.694 48.5555 137.341 48.833 137.804 49.4804ZM134.751 49.8503C134.474 50.1278 134.382 50.4977 134.289 50.9602H137.341C137.249 49.9428 136.694 49.4804 135.769 49.4804C135.306 49.4804 135.029 49.5729 134.751 49.8503Z" fill="white"/>
<path d="M140.763 48.6478V52.0697C140.763 52.5321 140.855 52.9021 141.04 53.0871C141.225 53.272 141.595 53.457 141.965 53.457C142.243 53.457 142.52 53.3645 142.798 53.0871C143.075 52.8096 143.26 52.5321 143.353 52.0697V48.6478H144.462V54.2894H143.353V53.5495C142.89 54.1969 142.243 54.4743 141.595 54.4743C140.208 54.4743 139.561 53.7345 139.561 52.1622V48.6478H140.763Z" fill="white"/>
<path d="M149.271 48.648V49.7578C148.994 49.6654 148.717 49.6654 148.439 49.6654C148.069 49.6654 147.792 49.8503 147.514 50.1278C147.237 50.4052 147.052 50.8677 147.052 51.3301V54.2896H145.942V48.648H147.052V49.4804C147.237 49.2029 147.422 48.9255 147.607 48.833C147.884 48.648 148.162 48.5555 148.532 48.5555C148.809 48.5555 149.087 48.5555 149.271 48.648Z" fill="white"/>
<path d="M154.636 50.3128H153.526C153.433 50.0353 153.341 49.7578 153.156 49.6654C152.971 49.5729 152.693 49.4804 152.231 49.4804C151.861 49.4804 151.584 49.4804 151.491 49.6654C151.306 49.7578 151.214 49.9428 151.214 50.1278C151.214 50.3127 151.399 50.4977 151.676 50.5902C151.861 50.6827 152.231 50.7752 152.786 50.9602C153.433 51.1451 153.896 51.3301 154.173 51.5151C154.636 51.7925 154.821 52.1625 154.821 52.7174C154.821 53.9197 153.988 54.4746 152.323 54.4746C150.751 54.4746 149.919 53.8272 149.826 52.5324H150.936C151.029 52.9023 151.121 53.1798 151.306 53.3648C151.491 53.5497 151.769 53.5498 152.231 53.5498C153.156 53.5498 153.618 53.2723 153.618 52.8099C153.618 52.5324 153.433 52.3474 153.156 52.1625C152.971 52.07 152.601 51.9775 152.046 51.7925C151.399 51.6076 150.936 51.5151 150.659 51.3301C150.196 51.0526 150.011 50.6827 150.011 50.2203C150.011 49.6654 150.196 49.2954 150.659 49.018C151.121 48.7405 151.676 48.5555 152.323 48.5555C153.711 48.5555 154.543 49.1104 154.636 50.3128Z" fill="white"/>
<path d="M165.179 47.0747C165.734 47.5371 166.104 48.1845 166.197 48.9244H165.087C164.994 48.3695 164.717 47.9995 164.347 47.7221C163.977 47.4446 163.515 47.3521 162.96 47.3521C162.127 47.3521 161.48 47.6296 161.11 48.1845C160.74 48.7394 160.555 49.3868 160.555 50.3117C160.555 51.2365 160.74 51.9764 161.11 52.4388C161.48 52.9937 162.127 53.2712 163.052 53.2712C163.607 53.2712 164.069 53.0862 164.439 52.8088C164.809 52.5313 165.087 52.0689 165.272 51.4215H166.382C166.197 52.3464 165.827 52.9937 165.179 53.5487C164.624 54.0111 163.884 54.2885 163.052 54.2885C161.757 54.2885 160.832 53.9186 160.185 53.0862C159.63 52.3463 159.353 51.4215 159.353 50.3117C159.353 49.2018 159.63 48.1845 160.185 47.4446C160.832 46.6122 161.757 46.2423 163.052 46.2423C163.792 46.3348 164.624 46.6122 165.179 47.0747Z" fill="white"/>
<path d="M172.023 49.3879C172.486 49.9428 172.763 50.6827 172.763 51.5151C172.763 52.3474 172.486 53.0873 172.023 53.6422C171.468 54.1972 170.821 54.4746 169.989 54.4746C169.156 54.4746 168.416 54.1972 167.954 53.6422C167.491 53.0873 167.214 52.3474 167.214 51.5151C167.214 50.6827 167.491 49.9428 167.954 49.3879C168.509 48.833 169.156 48.5555 169.989 48.5555C170.821 48.5555 171.561 48.833 172.023 49.3879ZM168.786 50.1278C168.509 50.4977 168.416 50.9601 168.416 51.5151C168.416 52.07 168.509 52.5324 168.786 52.9023C169.064 53.2723 169.526 53.5498 169.989 53.5498C170.451 53.5498 170.913 53.3648 171.283 52.9023C171.561 52.5324 171.653 52.07 171.653 51.5151C171.653 50.9601 171.561 50.4977 171.283 50.1278C171.006 49.6654 170.543 49.4804 169.989 49.4804C169.434 49.4804 169.064 49.6654 168.786 50.1278Z" fill="white"/>
<path d="M178.59 50.959V51.8839H174.89V50.959H178.59Z" fill="white"/>
<path d="M186.636 47.0747C187.191 47.5371 187.561 48.1845 187.653 48.9244H186.543C186.451 48.3695 186.173 47.9995 185.803 47.7221C185.434 47.4446 184.971 47.3521 184.416 47.3521C183.584 47.3521 182.936 47.6296 182.566 48.1845C182.197 48.7394 182.012 49.3868 182.012 50.3117C182.012 51.2365 182.197 51.9764 182.566 52.4388C182.936 52.9937 183.584 53.2712 184.509 53.2712C185.064 53.2712 185.526 53.0862 185.896 52.8088C186.266 52.5313 186.543 52.0689 186.728 51.4215H187.838C187.653 52.3464 187.283 52.9937 186.636 53.5487C186.081 54.0111 185.341 54.2885 184.509 54.2885C183.214 54.2885 182.289 53.9186 181.642 53.0862C181.087 52.3463 180.809 51.4215 180.809 50.3117C180.809 49.2018 181.087 48.1845 181.642 47.4446C182.289 46.6122 183.214 46.2423 184.509 46.2423C185.249 46.3348 185.988 46.6122 186.636 47.0747Z" fill="white"/>
<path d="M192.185 48.648V49.7578C191.907 49.6654 191.63 49.6654 191.352 49.6654C190.982 49.6654 190.705 49.8503 190.427 50.1278C190.15 50.4052 189.965 50.8677 189.965 51.3301V54.2896H188.855V48.648H189.965V49.4804C190.15 49.2029 190.335 48.9255 190.52 48.833C190.797 48.648 191.075 48.5555 191.445 48.5555C191.722 48.5555 191.907 48.5555 192.185 48.648Z" fill="white"/>
<path d="M197.457 49.4804C197.919 50.0353 198.104 50.8677 198.104 51.7925H193.85C193.85 52.3474 194.035 52.7174 194.312 53.0873C194.59 53.3648 194.959 53.5498 195.422 53.5498C195.792 53.5498 196.162 53.4573 196.439 53.2723C196.624 53.0873 196.809 52.9023 196.994 52.5324H198.104C198.011 53.0873 197.734 53.4573 197.364 53.8272C196.902 54.2896 196.254 54.4746 195.514 54.4746C194.682 54.4746 194.035 54.1972 193.572 53.7347C193.017 53.1798 192.832 52.4399 192.832 51.5151C192.832 50.6827 193.11 49.9428 193.572 49.3879C194.035 48.833 194.682 48.5555 195.514 48.5555C196.254 48.5555 196.902 48.833 197.457 49.4804ZM194.312 49.8503C194.035 50.1278 193.942 50.4977 193.85 50.9602H196.902C196.809 49.9428 196.254 49.4804 195.329 49.4804C194.959 49.4804 194.59 49.5729 194.312 49.8503Z" fill="white"/>
<path d="M203.468 49.1091C203.838 49.479 204.023 50.0339 204.023 50.6813V54.2882H202.913V53.4559C202.728 53.7333 202.451 54.0108 202.081 54.1033C201.711 54.2883 201.248 54.3807 200.786 54.3807C200.231 54.3807 199.769 54.1958 199.399 53.9183C199.029 53.6409 198.844 53.2709 198.844 52.8085C198.844 52.1611 199.121 51.6987 199.584 51.3287C200.046 50.9588 200.694 50.8663 201.526 50.7738H202.821V50.5888C202.821 49.8489 202.358 49.3865 201.526 49.3865C201.156 49.3865 200.879 49.479 200.694 49.5715C200.416 49.7565 200.231 49.9414 200.231 50.3114L199.121 50.2189C199.214 49.5715 199.584 49.1091 200.046 48.8316C200.416 48.5541 201.064 48.4617 201.711 48.4617C202.451 48.5542 203.098 48.7391 203.468 49.1091ZM201.618 51.6987C200.601 51.6987 200.046 52.0686 200.046 52.8085C200.046 52.9935 200.139 53.1784 200.324 53.3634C200.509 53.5484 200.694 53.5484 201.063 53.5484C201.526 53.5484 201.988 53.3634 202.358 53.0859C202.728 52.8085 202.913 52.4385 202.913 51.9761V51.6062L201.618 51.6987Z" fill="white"/>
<path d="M206.982 48.6479H208.277V49.5728H206.982V52.8098C206.982 52.9948 206.982 53.0872 207.075 53.1797C207.167 53.2722 207.26 53.2722 207.352 53.2722H208.092V54.1971H207.167C206.705 54.1971 206.335 54.1046 206.15 53.8271C205.965 53.5496 205.872 53.2722 205.872 52.8098V49.5728H204.855V48.6479H205.872V47.3531L206.982 46.8907V48.6479Z" fill="white"/>
<path d="M210.405 46.6133C210.59 46.7983 210.59 46.9833 210.59 47.1682C210.59 47.3532 210.497 47.5382 210.312 47.7232C210.127 47.9081 209.942 47.9081 209.757 47.9081C209.572 47.9081 209.387 47.8156 209.202 47.7232C209.017 47.5382 209.017 47.3532 209.017 47.1682C209.017 46.9833 209.11 46.7983 209.202 46.6133C209.387 46.4284 209.572 46.4283 209.757 46.4283C210.035 46.4283 210.312 46.5208 210.405 46.6133ZM210.405 48.648V54.2896H209.295V48.648H210.405Z" fill="white"/>
<path d="M216.508 49.3879C216.971 49.9428 217.248 50.6827 217.248 51.5151C217.248 52.3474 216.971 53.0873 216.508 53.6422C215.954 54.1972 215.306 54.4746 214.474 54.4746C213.641 54.4746 212.901 54.1972 212.439 53.6422C211.977 53.0873 211.699 52.3474 211.699 51.5151C211.699 50.6827 211.977 49.9428 212.439 49.3879C212.994 48.833 213.641 48.5555 214.474 48.5555C215.306 48.5555 215.954 48.833 216.508 49.3879ZM213.179 50.1278C212.901 50.4977 212.809 50.9601 212.809 51.5151C212.809 52.07 212.901 52.5324 213.179 52.9023C213.456 53.2723 213.919 53.5498 214.381 53.5498C214.936 53.5498 215.306 53.3648 215.676 52.9023C215.953 52.5324 216.046 52.07 216.046 51.5151C216.046 50.9601 215.953 50.4977 215.676 50.1278C215.399 49.6654 214.936 49.4804 214.381 49.4804C213.919 49.4804 213.456 49.6654 213.179 50.1278Z" fill="white"/>
<path d="M223.352 50.8669V54.3814H222.243V50.9594C222.243 50.0346 221.78 49.4797 220.948 49.4797C220.578 49.4797 220.3 49.5721 220.115 49.8496C219.838 50.1271 219.653 50.497 219.653 50.9594V54.3814H218.543V48.7398H219.653V49.4797C219.838 49.2022 220.115 49.0172 220.393 48.8322C220.67 48.6473 220.948 48.6473 221.318 48.6473C222.613 48.5548 223.352 49.2947 223.352 50.8669Z" fill="white"/>
<path d="M231.214 46.5206C233.064 46.5206 233.989 47.2605 233.989 48.9252C233.989 50.4974 233.064 51.3298 231.214 51.3298H229.179V54.3818H227.977V46.6131H231.214V46.5206ZM229.179 50.22H231.122C231.676 50.22 232.139 50.1275 232.416 49.8501C232.694 49.6651 232.786 49.2951 232.786 48.8327C232.786 48.3703 232.601 48.0003 232.416 47.8154C232.139 47.6304 231.676 47.4454 231.122 47.4454H229.179V50.22Z" fill="white"/>
<path d="M236.115 46.335V54.2887H235.005V46.335H236.115Z" fill="white"/>
<path d="M241.942 49.1091C242.312 49.479 242.497 50.0339 242.497 50.6813V54.2882H241.387V53.4559C241.202 53.7333 240.925 54.0108 240.555 54.1033C240.185 54.2883 239.722 54.3807 239.26 54.3807C238.705 54.3807 238.243 54.1958 237.873 53.9183C237.503 53.6409 237.318 53.2709 237.318 52.8085C237.318 52.1611 237.595 51.6987 238.058 51.3287C238.52 50.9588 239.167 50.8663 240 50.7738H241.295V50.5888C241.295 49.8489 240.832 49.3865 240 49.3865C239.63 49.3865 239.352 49.479 239.167 49.5715C238.89 49.7565 238.705 49.9414 238.705 50.3114L237.595 50.2189C237.688 49.5715 238.058 49.1091 238.52 48.8316C238.89 48.5541 239.537 48.4617 240.185 48.4617C240.925 48.5542 241.48 48.7391 241.942 49.1091ZM240.092 51.6987C239.075 51.6987 238.52 52.0686 238.52 52.8085C238.52 52.9935 238.612 53.1784 238.797 53.3634C238.982 53.5484 239.167 53.5484 239.537 53.5484C240 53.5484 240.462 53.3634 240.832 53.0859C241.202 52.8085 241.387 52.4385 241.387 51.9761V51.6062L240.092 51.6987Z" fill="white"/>
<path d="M245.364 48.6479H246.658V49.5728H245.364V52.8098C245.364 52.9948 245.364 53.0872 245.456 53.1797C245.549 53.2722 245.641 53.2722 245.734 53.2722H246.473V54.1971H245.549C245.086 54.1971 244.716 54.1046 244.531 53.8271C244.346 53.5496 244.254 53.2722 244.254 52.8098V49.5728H243.236V48.6479H244.254V47.3531L245.364 46.8907V48.6479Z" fill="white"/>
<path d="M251.283 46.5206V47.5379H250.266C250.081 47.5379 249.896 47.5379 249.896 47.7229C249.803 47.8154 249.803 48.0004 249.803 48.1853V48.7402H251.283V49.6651H249.803V54.3818H248.694V49.6651H247.399V48.7402H248.694V48.0928C248.694 47.6304 248.786 47.2605 249.064 46.983C249.341 46.7055 249.711 46.6131 250.173 46.6131H251.283V46.5206Z" fill="white"/>
<path d="M256.555 49.3879C257.017 49.9428 257.295 50.6827 257.295 51.5151C257.295 52.3474 257.017 53.0873 256.555 53.6422C256 54.1972 255.352 54.4746 254.52 54.4746C253.688 54.4746 252.948 54.1972 252.485 53.6422C252.023 53.0873 251.745 52.3474 251.745 51.5151C251.745 50.6827 252.023 49.9428 252.485 49.3879C253.04 48.833 253.688 48.5555 254.52 48.5555C255.352 48.5555 256.092 48.833 256.555 49.3879ZM253.318 50.1278C253.04 50.4977 252.948 50.9601 252.948 51.5151C252.948 52.07 253.04 52.5324 253.318 52.9023C253.595 53.2723 254.058 53.5498 254.52 53.5498C255.075 53.5498 255.445 53.3648 255.815 52.9023C256.092 52.5324 256.185 52.07 256.185 51.5151C256.185 50.9601 256.092 50.4977 255.815 50.1278C255.537 49.6654 255.075 49.4804 254.52 49.4804C253.965 49.4804 253.595 49.6654 253.318 50.1278Z" fill="white"/>
<path d="M261.826 48.648V49.7578C261.549 49.6654 261.271 49.6654 260.994 49.6654C260.624 49.6654 260.346 49.8503 260.069 50.1278C259.791 50.4052 259.606 50.8677 259.606 51.3301V54.2896H258.497V48.648H259.606V49.4804C259.791 49.2029 259.976 48.9255 260.161 48.833C260.439 48.648 260.716 48.5555 261.086 48.5555C261.364 48.5555 261.641 48.5555 261.826 48.648Z" fill="white"/>
<path d="M267.098 49.4804C267.375 49.1105 267.653 48.9255 267.93 48.7405C268.208 48.5555 268.485 48.5555 268.855 48.5555C269.41 48.5555 269.872 48.7405 270.335 49.1105C270.705 49.4804 270.89 50.0353 270.89 50.5902V54.2896H269.78V50.7752C269.78 50.3128 269.687 49.9428 269.503 49.7578C269.318 49.5729 268.948 49.4804 268.578 49.4804C268.208 49.4804 268.023 49.5729 267.745 49.8503C267.56 50.1278 267.375 50.4053 267.375 50.8677V54.2896H266.266V50.7752C266.266 49.8503 265.896 49.4804 265.156 49.4804C264.786 49.4804 264.508 49.6654 264.231 49.9428C263.953 50.2203 263.861 50.5902 263.861 50.9602V54.3821H262.566V48.7405H263.676V49.3879C264.138 48.833 264.693 48.648 265.248 48.648C266.173 48.5555 266.728 48.833 267.098 49.4804Z" fill="white"/>
</svg>
