<svg width="295" height="62" viewBox="0 0 295 62" fill="none" xmlns="http://www.w3.org/2000/svg">
<path d="M53.3 0.899902L0.100006 59.1999H13.7L17.9 54.5999C22.8 49.6999 34.4 42.8999 52.2 38.7999H32.3L52.5 18.5999L52.2 38.7999V59.1999H58.8V0.899902H53.3Z" fill="#0086D1"/>
<path d="M77 35.7C75.4 33.9 71.8 31.7 65.8 36.2L71.8 28.4L65.8 20V36.2V52.4L60.8 58.9V0.599976L83.7 29.9L80.3 34.3L78.1 37.1L77 35.7Z" fill="#F5A223"/>
<path d="M97.7 18.3999C100 19.7999 102.6 21.6 105.3 23.7L103.7 25.8999C102.7 25.0999 101.7 24.2999 100.9 23.5999V25.2999H93.8V24.2C92.5 25.3 91 26.3999 89.4 27.4999L87.8 25.2C91.1 23.1 93.9 20.7999 96.1 18.3999H97.7ZM103.7 45.4999H101V44.4999H95.4V45.5999H92.9V37.3999C92.3 40.4999 91.3 43.1999 89.9 45.5999L87.7 43.5999C89.6 40.6999 90.6 36.8999 90.6 32.2999V26.7999H103.3V35.5999H93.1C93 36.1999 93 36.7999 92.9 37.2999H103.6V45.4999H103.7ZM93.3 32.2999C93.3 32.6999 93.3 33.0999 93.3 33.4999H100.7V31.9999H93.4V32.2999H93.3ZM100.7 28.7999H93.4V30.2H100.7V28.7999ZM100.3 23.2C99 22.2 97.9 21.3999 97 20.8999C96.3 21.6999 95.6 22.4 94.7 23.2H100.3ZM101 42.2999V39.3999H95.4V42.2999H101ZM106.8 45.2999L106.1 42.5999C107.5 42.6999 108.9 42.7 110.2 42.7C110.9 42.7 111.3 42.2999 111.3 41.5999V18.2999H114.1V42.2999C114.1 44.2999 113.1 45.2 111.2 45.2H106.8V45.2999ZM108.9 20.3999V39.3999H106.2V20.3999H108.9Z" fill="#0086D1"/>
<path d="M129.9 18.2999V22.5999H132.4V18.2999H135.1V22.5999H137.2C138 21.3999 138.7 20.1 139.3 18.7L141.9 19.7C141.3 20.8 140.7 21.7999 140 22.5999H144.2V25.0999H136L138.3 25.8999C137.9 26.5999 137.5 27.1999 137 27.7999H142.9V30.2999H132.7V31.8999H141.5V34.2H132.7V35.7999H144.3V38.2999H132.7V45.7H129.9V38.2999H118.3V35.7999H129.9V34.2H121V31.8999H129.8V30.2999H119.6V27.7999H125.5C125.1 27.0999 124.7 26.3999 124.2 25.7999L126.1 25.0999H118.2V22.5999H122.4C121.9 21.5999 121.3 20.6 120.7 19.7L123.3 18.7C124 19.8 124.5 21.0999 125.1 22.5999H127.1V18.2999H129.9ZM127 40.4999C125.2 42.2999 122.9 43.8999 120.3 45.2999L118.6 42.9999C121.2 41.7999 123.4 40.3999 125.2 38.7999L127 40.4999ZM127 24.9999C127.5 25.7999 128 26.7 128.4 27.7H133.8C134.4 26.8 135 25.8999 135.4 24.9999H127ZM143.8 43.2L141.8 45.2C140.3 43.7 138.3 42.1999 135.6 40.4999L137.4 38.7999C140 40.2999 142.1 41.8 143.8 43.2Z" fill="#0086D1"/>
<path d="M158.2 21.0999V18.2H161V21.0999H167.6V23.7H161V26.5999H164.5C167.3 24.5999 169.7 22.3999 171.6 20.0999L173.7 21.7C172.2 23.5 170.6 25.2 168.9 26.7H174.2V29.3999H165.3C164.9 29.5999 164.6 29.7999 164.2 30.0999C163.1 30.7999 161.9 31.3999 160.4 32.0999H170.5V45.7999H167.7V44.7H155.8V45.7999H153V35.2999C151.5 35.7999 150 36.3999 148.4 36.9999L147.2 34.3999C151.8 33.2999 156.2 31.6999 160.2 29.3999H147.6V26.7H158.1V23.7999H150V21.2H158.2V21.0999ZM167.8 34.3999H155.9V36.8999H167.8V34.3999ZM155.8 42.0999H167.7V39.3999H155.8V42.0999Z" fill="#0086D1"/>
<path d="M189.6 38.4999C187.1 41.2999 184.1 43.7 180.5 45.7L178.5 43.2C182 41.3 185 39.0999 187.4 36.5999L189.6 38.4999ZM185.3 24.0999V18.2H188.1V24.0999H195.8V18.2999H198.6V24.0999H203.8V26.7999H198.6V33.2H205.2V35.9999H178.6V33.2H185.2V26.7999H180V24.0999H185.3ZM195.8 33.2999V26.8999H188.1V33.2999H195.8ZM205.4 43.3999L203.1 45.7C201.1 43.5 198.3 41.1999 194.6 38.5999L196.6 36.5999C200.1 38.8999 203 41.1999 205.4 43.3999Z" fill="#0086D1"/>
<path d="M217.8 18.3999C220.1 19.7999 222.7 21.5999 225.4 23.6999L223.8 25.8999C222.8 25.0999 221.8 24.2999 221 23.5999V25.2999H213.9V24.1999C212.6 25.2999 211.1 26.3999 209.5 27.4999L207.9 25.1999C211.2 23.0999 214 20.7999 216.2 18.3999H217.8ZM223.7 45.5999H221.1V44.5999H215.5V45.6999H213V37.4999C212.4 40.5999 211.4 43.2999 210 45.6999L207.8 43.6999C209.7 40.7999 210.7 36.9999 210.7 32.3999V26.8999H223.4V35.6999H213.2C213.1 36.2999 213.1 36.8999 213 37.3999H223.7V45.5999ZM213.4 32.2999C213.4 32.6999 213.4 33.0999 213.4 33.4999H220.8V31.9999H213.5V32.2999H213.4ZM220.7 28.7999H213.4V30.1999H220.7V28.7999ZM220.4 23.2999C219.1 22.2999 218 21.4999 217.1 20.9999C216.4 21.7999 215.7 22.4999 214.8 23.2999H220.4ZM221.1 42.2999V39.3999H215.5V42.2999H221.1ZM226.9 45.3999L226.2 42.6999C227.6 42.7999 229 42.7999 230.3 42.7999C231 42.7999 231.4 42.3999 231.4 41.6999V18.3999H234.2V42.3999C234.2 44.3999 233.2 45.2999 231.3 45.2999H226.9V45.3999ZM229 20.3999V39.3999H226.3V20.3999H229Z" fill="#0086D1"/>
<path d="M263.4 19.3999V22.1999H252.6V32.6999H264.5V35.3999H252.6V45.6999H249.8V35.3999H238.1V32.6999H249.8V22.1999H239.3V19.3999H263.4ZM246.5 30.1999L243.9 31.4999C242.9 28.9999 241.9 26.7999 240.8 24.7999L243.4 23.4999C244.5 25.5999 245.5 27.7999 246.5 30.1999ZM262 24.6999C261.1 26.9999 260 29.1999 258.7 31.3999L256.2 30.0999C257.6 27.7999 258.7 25.6999 259.5 23.4999L262 24.6999Z" fill="#0086D1"/>
<path d="M268.3 27.7C270.6 27.2 273.7 24 277.6 18.2L280.5 19.2C278.1 22.5 275.7 25.2999 273.2 27.5999C278.2 27.3999 283.1 27.1 287.8 26.7C286.9 25.3 285.9 24 284.9 22.7L287.4 21.4999C289.8 24.4999 292.1 27.6999 294.2 31.2999L291.4 32.7C290.7 31.5 290 30.3 289.3 29.2C283.1 29.7 276.2 30.0999 268.6 30.3999L268.3 27.7ZM291.1 45.7H288.3V44.4999H273.7V45.7H270.9V33.0999H291.2V45.7H291.1ZM288.2 41.7999V35.7999H273.6V41.7999H288.2Z" fill="#0086D1"/>
<path d="M95.6 50.8999V51.9999H90.8V54.3999H95.3V55.4999H90.8V58.1999H95.8V59.2999H89.6V50.8999H95.6Z" fill="#666464"/>
<path d="M102.3 55.6V59.4H101.1V55.7C101.1 54.7 100.6 54.1 99.7 54.1C99.3 54.1 99 54.2 98.8 54.5C98.5 54.8 98.3 55.2 98.3 55.7V59.4H97V53.3H98.2V54.1C98.4 53.8 98.7 53.6 99 53.4C99.3 53.2 99.6 53.2 100 53.2C101.5 53.1 102.3 53.9 102.3 55.6Z" fill="#666464"/>
<path d="M105.5 53.2H106.9V54.2H105.5V57.7C105.5 57.9 105.5 57.9999 105.6 58.0999C105.7 58.1999 105.8 58.2 105.9 58.2H106.7V59.2H105.7C105.2 59.2 104.8 59.0999 104.6 58.7999C104.4 58.4999 104.3 58.2 104.3 57.7V54.2H103.2V53.2H104.3V51.7999L105.5 51.2999V53.2Z" fill="#666464"/>
<path d="M111.5 53.2V54.4C111.2 54.3 110.9 54.3 110.6 54.3C110.2 54.3 109.9 54.5 109.6 54.8C109.3 55.1 109.1 55.6 109.1 56.1V59.3H107.9V53.2H109.1V54.1C109.3 53.8 109.5 53.5 109.7 53.4C110 53.2 110.3 53.1 110.7 53.1C111 53.1 111.3 53.1 111.5 53.2Z" fill="#666464"/>
<path d="M117.2 54.1C117.7 54.7 117.9 55.6 117.9 56.6H113.3C113.3 57.2 113.5 57.6 113.8 58C114.1 58.3 114.5 58.5 115 58.5C115.4 58.5 115.8 58.4 116.1 58.2C116.3 58 116.5 57.8 116.7 57.4H117.9C117.8 58 117.5 58.4 117.1 58.8C116.6 59.3 115.9 59.5 115.1 59.5C114.2 59.5 113.5 59.2 113 58.7C112.4 58.1 112.2 57.3 112.2 56.3C112.2 55.4 112.5 54.6 113 54C113.5 53.4 114.2 53.1 115.1 53.1C115.9 53.1 116.7 53.4 117.2 54.1ZM113.9 54.5C113.6 54.8 113.5 55.2 113.4 55.7H116.7C116.6 54.6 116 54.1 115 54.1C114.5 54.1 114.1 54.2 113.9 54.5Z" fill="#666464"/>
<path d="M124.3 54C124.8 54.6 125 55.3 125 56.3C125 57.2 124.8 57.9 124.3 58.5C123.8 59.1 123.1 59.5 122.2 59.5C121.4 59.5 120.8 59.1 120.3 58.4V61.6H119.1V53.2H120.3V53.9C120.7 53.3 121.4 53 122.2 53C123.1 53.1 123.7 53.4 124.3 54ZM120.7 54.7C120.4 55.1 120.3 55.6 120.3 56.2V56.3C120.3 56.9 120.5 57.5 120.8 57.9C121.1 58.3 121.5 58.5 121.9 58.5C122.5 58.5 123 58.3 123.3 57.9C123.6 57.5 123.7 57 123.7 56.3C123.7 55.6 123.6 55.1 123.3 54.7C123 54.3 122.6 54 121.9 54C121.4 54.1 121 54.3 120.7 54.7Z" fill="#666464"/>
<path d="M129.8 53.2V54.4C129.5 54.3 129.2 54.3 128.9 54.3C128.5 54.3 128.2 54.5 127.9 54.8C127.6 55.1 127.4 55.6 127.4 56.1V59.3H126.2V53.2H127.4V54.1C127.6 53.8 127.8 53.5 128 53.4C128.3 53.2 128.6 53.1 129 53.1C129.4 53.1 129.6 53.1 129.8 53.2Z" fill="#666464"/>
<path d="M135.5 54.1C136 54.7 136.2 55.6 136.2 56.6H131.6C131.6 57.2 131.8 57.6 132.1 58C132.4 58.3 132.8 58.5 133.3 58.5C133.7 58.5 134.1 58.4 134.4 58.2C134.6 58 134.8 57.8 135 57.4H136.2C136.1 58 135.8 58.4 135.4 58.8C134.9 59.3 134.2 59.5 133.4 59.5C132.5 59.5 131.8 59.2 131.3 58.7C130.7 58.1 130.5 57.3 130.5 56.3C130.5 55.4 130.8 54.6 131.3 54C131.8 53.4 132.5 53.1 133.4 53.1C134.3 53.1 135 53.4 135.5 54.1ZM132.2 54.5C131.9 54.8 131.8 55.2 131.7 55.7H135C134.9 54.6 134.3 54.1 133.3 54.1C132.8 54.1 132.5 54.2 132.2 54.5Z" fill="#666464"/>
<path d="M142.8 55.6V59.4H141.6V55.7C141.6 54.7 141.1 54.1 140.2 54.1C139.8 54.1 139.5 54.2 139.3 54.5C139 54.8 138.8 55.2 138.8 55.7V59.4H137.6V53.3H138.8V54.1C139 53.8 139.3 53.6 139.6 53.4C139.9 53.2 140.2 53.2 140.6 53.2C142 53.1 142.8 53.9 142.8 55.6Z" fill="#666464"/>
<path d="M149.1 54.1C149.6 54.7 149.8 55.6 149.8 56.6H145.2C145.2 57.2 145.4 57.6 145.7 58C146 58.3 146.4 58.5 146.9 58.5C147.3 58.5 147.7 58.4 148 58.2C148.2 58 148.4 57.8 148.6 57.4H149.8C149.7 58 149.4 58.4 149 58.8C148.5 59.3 147.8 59.5 147 59.5C146.1 59.5 145.4 59.2 144.9 58.7C144.3 58.1 144.1 57.3 144.1 56.3C144.1 55.4 144.4 54.6 144.9 54C145.4 53.4 146.1 53.1 147 53.1C147.9 53.1 148.6 53.4 149.1 54.1ZM145.8 54.5C145.5 54.8 145.4 55.2 145.3 55.7H148.6C148.5 54.6 147.9 54.1 146.9 54.1C146.4 54.1 146.1 54.2 145.8 54.5Z" fill="#666464"/>
<path d="M152.3 53.2V56.8999C152.3 57.3999 152.4 57.7999 152.6 57.9999C152.8 58.1999 153.2 58.3999 153.6 58.3999C153.9 58.3999 154.2 58.2999 154.5 57.9999C154.8 57.6999 155 57.3999 155.1 56.8999V53.2H156.3V59.2999H155.1V58.4999C154.6 59.1999 153.9 59.4999 153.2 59.4999C151.7 59.4999 151 58.6999 151 56.9999V53.2H152.3Z" fill="#666464"/>
<path d="M161.5 53.2V54.4C161.2 54.3 160.9 54.3 160.6 54.3C160.2 54.3 159.9 54.5 159.6 54.8C159.3 55.1 159.1 55.6 159.1 56.1V59.3H157.9V53.2H159.1V54.1C159.3 53.8 159.5 53.5 159.7 53.4C160 53.2 160.3 53.1 160.7 53.1C161 53.1 161.3 53.1 161.5 53.2Z" fill="#666464"/>
<path d="M167.3 55H166.1C166 54.7 165.9 54.4 165.7 54.3C165.5 54.2 165.2 54.1 164.7 54.1C164.3 54.1 164 54.1 163.9 54.3C163.7 54.4 163.6 54.6 163.6 54.8C163.6 55 163.8 55.2 164.1 55.3C164.3 55.4 164.7 55.5 165.3 55.7C166 55.9 166.5 56.1 166.8 56.3C167.3 56.6 167.5 57 167.5 57.6C167.5 58.9 166.6 59.5 164.8 59.5C163.1 59.5 162.2 58.8 162.1 57.4H163.3C163.4 57.8 163.5 58.1 163.7 58.3C163.9 58.5 164.2 58.5 164.7 58.5C165.7 58.5 166.2 58.2 166.2 57.7C166.2 57.4 166 57.2 165.7 57C165.5 56.9 165.1 56.8 164.5 56.6C163.8 56.4 163.3 56.3 163 56.1C162.5 55.8 162.3 55.4 162.3 54.9C162.3 54.3 162.5 53.9 163 53.6C163.5 53.3 164.1 53.1 164.8 53.1C166.3 53.1 167.2 53.7 167.3 55Z" fill="#666464"/>
<path d="M178.7 51.5C179.3 52 179.7 52.7 179.8 53.5H178.6C178.5 52.9 178.2 52.5 177.8 52.2C177.4 51.9 176.9 51.8 176.3 51.8C175.4 51.8 174.7 52.1 174.3 52.7C173.9 53.3 173.7 54 173.7 55C173.7 56 173.9 56.8 174.3 57.3C174.7 57.9 175.4 58.2 176.4 58.2C177 58.2 177.5 58 177.9 57.7C178.3 57.4 178.6 56.9 178.8 56.2H180C179.8 57.2 179.4 57.9 178.7 58.5C178.1 59 177.3 59.3 176.4 59.3C175 59.3 174 58.9 173.3 58C172.7 57.2 172.4 56.2 172.4 55C172.4 53.8 172.7 52.7 173.3 51.9C174 51 175 50.6 176.4 50.6C177.2 50.7 178.1 51 178.7 51.5Z" fill="#666464"/>
<path d="M186.1 54C186.6 54.6 186.9 55.4 186.9 56.3C186.9 57.2 186.6 58 186.1 58.6C185.5 59.2 184.8 59.5 183.9 59.5C183 59.5 182.2 59.2 181.7 58.6C181.2 58 180.9 57.2 180.9 56.3C180.9 55.4 181.2 54.6 181.7 54C182.3 53.4 183 53.1 183.9 53.1C184.8 53.1 185.6 53.4 186.1 54ZM182.6 54.8C182.3 55.2 182.2 55.7 182.2 56.3C182.2 56.9 182.3 57.4 182.6 57.8C182.9 58.2 183.4 58.5 183.9 58.5C184.4 58.5 184.9 58.3 185.3 57.8C185.6 57.4 185.7 56.9 185.7 56.3C185.7 55.7 185.6 55.2 185.3 54.8C185 54.3 184.5 54.1 183.9 54.1C183.3 54.1 182.9 54.3 182.6 54.8Z" fill="#666464"/>
<path d="M193.2 55.7V56.7H189.2V55.7H193.2Z" fill="#666464"/>
<path d="M201.9 51.5C202.5 52 202.9 52.7 203 53.5H201.8C201.7 52.9 201.4 52.5 201 52.2C200.6 51.9 200.1 51.8 199.5 51.8C198.6 51.8 197.9 52.1 197.5 52.7C197.1 53.3 196.9 54 196.9 55C196.9 56 197.1 56.8 197.5 57.3C197.9 57.9 198.6 58.2 199.6 58.2C200.2 58.2 200.7 58 201.1 57.7C201.5 57.4 201.8 56.9 202 56.2H203.2C203 57.2 202.6 57.9 201.9 58.5C201.3 59 200.5 59.3 199.6 59.3C198.2 59.3 197.2 58.9 196.5 58C195.9 57.2 195.6 56.2 195.6 55C195.6 53.8 195.9 52.7 196.5 51.9C197.2 51 198.2 50.6 199.6 50.6C200.4 50.7 201.2 51 201.9 51.5Z" fill="#666464"/>
<path d="M207.9 53.2V54.4C207.6 54.3 207.3 54.3 207 54.3C206.6 54.3 206.3 54.5 206 54.8C205.7 55.1 205.5 55.6 205.5 56.1V59.3H204.3V53.2H205.5V54.1C205.7 53.8 205.9 53.5 206.1 53.4C206.4 53.2 206.7 53.1 207.1 53.1C207.4 53.1 207.6 53.1 207.9 53.2Z" fill="#666464"/>
<path d="M213.6 54.1C214.1 54.7 214.3 55.6 214.3 56.6H209.7C209.7 57.2 209.9 57.6 210.2 58C210.5 58.3 210.9 58.5 211.4 58.5C211.8 58.5 212.2 58.4 212.5 58.2C212.7 58 212.9 57.8 213.1 57.4H214.3C214.2 58 213.9 58.4 213.5 58.8C213 59.3 212.3 59.5 211.5 59.5C210.6 59.5 209.9 59.2 209.4 58.7C208.8 58.1 208.6 57.3 208.6 56.3C208.6 55.4 208.9 54.6 209.4 54C209.9 53.4 210.6 53.1 211.5 53.1C212.3 53.1 213 53.4 213.6 54.1ZM210.2 54.5C209.9 54.8 209.8 55.2 209.7 55.7H213C212.9 54.6 212.3 54.1 211.3 54.1C210.9 54.1 210.5 54.2 210.2 54.5Z" fill="#666464"/>
<path d="M220.1 53.7C220.5 54.1 220.7 54.7 220.7 55.4V59.3H219.5V58.4C219.3 58.7 219 59 218.6 59.1C218.2 59.3 217.7 59.4 217.2 59.4C216.6 59.4 216.1 59.2 215.7 58.9C215.3 58.6 215.1 58.2 215.1 57.7C215.1 57 215.4 56.5 215.9 56.1C216.4 55.7 217.1 55.6 218 55.5H219.4V55.3C219.4 54.5 218.9 54 218 54C217.6 54 217.3 54.1 217.1 54.2C216.8 54.4 216.6 54.6 216.6 55L215.4 54.9C215.5 54.2 215.9 53.7 216.4 53.4C216.8 53.1 217.5 53 218.2 53C219 53.1 219.7 53.3 220.1 53.7ZM218.1 56.5C217 56.5 216.4 56.9 216.4 57.7C216.4 57.9 216.5 58.1 216.7 58.3C216.9 58.5 217.1 58.5 217.5 58.5C218 58.5 218.5 58.3 218.9 58C219.3 57.7 219.5 57.3 219.5 56.8V56.4L218.1 56.5Z" fill="#666464"/>
<path d="M223.9 53.2H225.3V54.2H223.9V57.7C223.9 57.9 223.9 57.9999 224 58.0999C224.1 58.1999 224.2 58.2 224.3 58.2H225.1V59.2H224.1C223.6 59.2 223.2 59.0999 223 58.7999C222.8 58.4999 222.7 58.2 222.7 57.7V54.2H221.6V53.2H222.7V51.7999L223.9 51.2999V53.2Z" fill="#666464"/>
<path d="M227.6 50.9999C227.8 51.1999 227.8 51.3999 227.8 51.5999C227.8 51.7999 227.7 52 227.5 52.2C227.3 52.4 227.1 52.3999 226.9 52.3999C226.7 52.3999 226.5 52.3 226.3 52.2C226.1 52 226.1 51.7999 226.1 51.5999C226.1 51.3999 226.2 51.1999 226.3 50.9999C226.5 50.7999 226.7 50.7999 226.9 50.7999C227.2 50.7999 227.5 50.8999 227.6 50.9999ZM227.6 53.2V59.2999H226.4V53.2H227.6Z" fill="#666464"/>
<path d="M234.2 54C234.7 54.6 235 55.4 235 56.3C235 57.2 234.7 58 234.2 58.6C233.6 59.2 232.9 59.5 232 59.5C231.1 59.5 230.3 59.2 229.8 58.6C229.3 58 229 57.2 229 56.3C229 55.4 229.3 54.6 229.8 54C230.4 53.4 231.1 53.1 232 53.1C232.9 53.1 233.6 53.4 234.2 54ZM230.6 54.8C230.3 55.2 230.2 55.7 230.2 56.3C230.2 56.9 230.3 57.4 230.6 57.8C230.9 58.2 231.4 58.5 231.9 58.5C232.5 58.5 232.9 58.3 233.3 57.8C233.6 57.4 233.7 56.9 233.7 56.3C233.7 55.7 233.6 55.2 233.3 54.8C233 54.3 232.5 54.1 231.9 54.1C231.4 54.1 230.9 54.3 230.6 54.8Z" fill="#666464"/>
<path d="M241.6 55.6V59.4H240.4V55.7C240.4 54.7 239.9 54.1 239 54.1C238.6 54.1 238.3 54.2 238.1 54.5C237.8 54.8 237.6 55.2 237.6 55.7V59.4H236.4V53.3H237.6V54.1C237.8 53.8 238.1 53.6 238.4 53.4C238.7 53.2 239 53.2 239.4 53.2C240.8 53.1 241.6 53.9 241.6 55.6Z" fill="#666464"/>
<path d="M250.1 50.8999C252.1 50.8999 253.1 51.6999 253.1 53.4999C253.1 55.1999 252.1 56.0999 250.1 56.0999H247.9V59.3999H246.6V50.9999H250.1V50.8999ZM247.9 54.8999H250C250.6 54.8999 251.1 54.7999 251.4 54.4999C251.7 54.2999 251.8 53.8999 251.8 53.3999C251.8 52.8999 251.6 52.4999 251.4 52.2999C251.1 52.0999 250.6 51.8999 250 51.8999H247.9V54.8999Z" fill="#666464"/>
<path d="M255.4 50.7V59.2999H254.2V50.7H255.4Z" fill="#666464"/>
<path d="M261.7 53.7C262.1 54.1 262.3 54.7 262.3 55.4V59.3H261.1V58.4C260.9 58.7 260.6 59 260.2 59.1C259.8 59.3 259.3 59.4 258.8 59.4C258.2 59.4 257.7 59.2 257.3 58.9C256.9 58.6 256.7 58.2 256.7 57.7C256.7 57 257 56.5 257.5 56.1C258 55.7 258.7 55.6 259.6 55.5H261V55.3C261 54.5 260.5 54 259.6 54C259.2 54 258.9 54.1 258.7 54.2C258.4 54.4 258.2 54.6 258.2 55L257 54.9C257.1 54.2 257.5 53.7 258 53.4C258.4 53.1 259.1 53 259.8 53C260.6 53.1 261.2 53.3 261.7 53.7ZM259.7 56.5C258.6 56.5 258 56.9 258 57.7C258 57.9 258.1 58.1 258.3 58.3C258.5 58.5 258.7 58.5 259.1 58.5C259.6 58.5 260.1 58.3 260.5 58C260.9 57.7 261.1 57.3 261.1 56.8V56.4L259.7 56.5Z" fill="#666464"/>
<path d="M265.4 53.2H266.8V54.2H265.4V57.7C265.4 57.9 265.4 57.9999 265.5 58.0999C265.6 58.1999 265.7 58.2 265.8 58.2H266.6V59.2H265.6C265.1 59.2 264.7 59.0999 264.5 58.7999C264.3 58.4999 264.2 58.2 264.2 57.7V54.2H263.1V53.2H264.2V51.7999L265.4 51.2999V53.2Z" fill="#666464"/>
<path d="M271.8 50.8999V51.9999H270.7C270.5 51.9999 270.3 51.9999 270.3 52.1999C270.2 52.2999 270.2 52.4999 270.2 52.6999V53.2999H271.8V54.2999H270.2V59.3999H269V54.2999H267.6V53.2999H269V52.5999C269 52.0999 269.1 51.6999 269.4 51.3999C269.7 51.0999 270.1 50.9999 270.6 50.9999H271.8V50.8999Z" fill="#666464"/>
<path d="M277.5 54C278 54.6 278.3 55.4 278.3 56.3C278.3 57.2 278 58 277.5 58.6C276.9 59.2 276.2 59.5 275.3 59.5C274.4 59.5 273.6 59.2 273.1 58.6C272.6 58 272.3 57.2 272.3 56.3C272.3 55.4 272.6 54.6 273.1 54C273.7 53.4 274.4 53.1 275.3 53.1C276.2 53.1 277 53.4 277.5 54ZM274 54.8C273.7 55.2 273.6 55.7 273.6 56.3C273.6 56.9 273.7 57.4 274 57.8C274.3 58.2 274.8 58.5 275.3 58.5C275.9 58.5 276.3 58.3 276.7 57.8C277 57.4 277.1 56.9 277.1 56.3C277.1 55.7 277 55.2 276.7 54.8C276.4 54.3 275.9 54.1 275.3 54.1C274.7 54.1 274.3 54.3 274 54.8Z" fill="#666464"/>
<path d="M283.2 53.2V54.4C282.9 54.3 282.6 54.3 282.3 54.3C281.9 54.3 281.6 54.5 281.3 54.8C281 55.1 280.8 55.6 280.8 56.1V59.3H279.6V53.2H280.8V54.1C281 53.8 281.2 53.5 281.4 53.4C281.7 53.2 282 53.1 282.4 53.1C282.7 53.1 283 53.1 283.2 53.2Z" fill="#666464"/>
<path d="M288.9 54.1C289.2 53.7 289.5 53.5 289.8 53.3C290.1 53.1 290.4 53.1 290.8 53.1C291.4 53.1 291.9 53.3 292.4 53.7C292.8 54.1 293 54.7 293 55.3V59.3H291.8V55.5C291.8 55 291.7 54.6 291.5 54.4C291.3 54.2 290.9 54.1 290.5 54.1C290.1 54.1 289.9 54.2 289.6 54.5C289.4 54.8 289.2 55.1 289.2 55.6V59.3H288V55.5C288 54.5 287.6 54.1 286.8 54.1C286.4 54.1 286.1 54.3 285.8 54.6C285.5 54.9 285.4 55.3 285.4 55.7V59.4H284V53.3H285.2V54C285.7 53.4 286.3 53.2 286.9 53.2C287.9 53.1 288.5 53.4 288.9 54.1Z" fill="#666464"/>
</svg>
