<svg width="32" height="32" viewBox="0 0 32 32" fill="none" xmlns="http://www.w3.org/2000/svg">
<path d="M16 0C24.8357 0 32 7.16429 32 16C32 24.8357 24.8357 32 16 32C7.16428 32 -1.43051e-06 24.8357 -1.43051e-06 16C-1.43051e-06 7.16429 7.16428 0 16 0ZM6.85714 9.06072L8.31428 10.4571C8.44286 10.5536 8.50357 10.7107 8.47857 10.8643V21.1393C8.50357 21.2964 8.44286 21.4536 8.31428 21.5464L6.88571 22.9429V23.2536H14.0571V22.9571L12.5821 21.525C12.4357 21.3786 12.4357 21.3357 12.4357 21.1179V12.8036L16.5429 23.2179H17.0964L21.875 12.8036V19.7857C21.9179 20.0786 21.8143 20.375 21.6071 20.5857L19.6857 22.9107V23.2214H25.1429V22.9107L23.2214 20.5857C23.1202 20.4811 23.0449 20.3543 23.0014 20.2154C22.958 20.0765 22.9478 19.9293 22.9714 19.7857V11.7143C22.9464 11.4893 23.0321 11.2714 23.2036 11.1179L24.9107 9.06072V8.75H19.6071L15.5143 17.7321L11.9107 8.75714H6.85714V9.06072Z" fill="white"/>
</svg>
